<svg xmlns="http://www.w3.org/2000/svg" width="78.828" height="63.711" viewBox="0 0 78.828 63.711"><defs><style>.a{fill:rgba(0,0,0,0.25);}.b{fill:none;stroke:rgba(112,112,112,0.25);}</style></defs><g transform="translate(0 -26.8)"><g transform="translate(0 39.594)"><path class="a" d="M355.724,424.907h-6.634a.793.793,0,0,0,0,1.585h6.634a.793.793,0,0,0,0-1.585Z" transform="translate(-307.324 -379.578)"/><path class="a" d="M349.091,401.432h4.422a.793.793,0,1,0,0-1.585h-4.422a.793.793,0,0,0,0,1.585Z" transform="translate(-307.324 -357.466)"/><path class="a" d="M355.724,374.782h-6.634a.793.793,0,0,0,0,1.585h6.634a.793.793,0,0,0,0-1.585Z" transform="translate(-307.324 -335.35)"/><path class="a" d="M57.682,70.209a6.461,6.461,0,0,0-1.239-3.833l-.9-1.219A14.779,14.779,0,1,0,32.488,47.25a18.59,18.59,0,0,0-10.995,2.209c-2.544,1.527-3.945,3.552-3.965,5.708,0,.006,0,.011,0,.018v.03c0,.012,0,.024,0,.037s0,.021,0,.032v3.082l-2.1,1.261a.794.794,0,0,0-.334.4L14.573,61.4l-3.241.077a.792.792,0,0,0-.773.76l-.065,1.613-3.662.087a.792.792,0,0,0-.773.76l-.075,1.86-3.924.1a.8.8,0,0,0-.388.113l-1.288.773a.792.792,0,0,0-.384.7L.1,72.3v3.28l0,.008s0,.007,0,.011v.014a.75.75,0,0,0,.016.077.8.8,0,0,0,.045.223.752.752,0,0,0,.059.093.8.8,0,0,0,.106.158.791.791,0,0,0,.115.083.774.774,0,0,0,.131.088.793.793,0,0,0,.178.041.752.752,0,0,0,.117.027H.893l6.885.206h.009l.012,0c.01,0,.019-.005.029-.006a.78.78,0,0,0,.24-.048.735.735,0,0,0,.077-.033c.022-.01.045-.016.066-.028L26.479,65.534a19.487,19.487,0,0,0,2.654.188,19.82,19.82,0,0,0,5.848-.879A14.433,14.433,0,0,0,37.9,67.108a6.536,6.536,0,0,0-.786,3.1v17.32a2.868,2.868,0,0,0,2.731,2.982h15.11a2.868,2.868,0,0,0,2.731-2.982V70.209ZM32.44,52.019a12.88,12.88,0,0,1,1.2-3.58A13.208,13.208,0,1,1,53.971,64.462h0a13.031,13.031,0,0,1-4.9,2.628,12.882,12.882,0,0,1-2.819.482,1.391,1.391,0,0,1-.162-1.363A11.843,11.843,0,1,0,35.255,48.323a11.643,11.643,0,0,0-1.461,3.828,11.3,11.3,0,0,0-.19,1.721,3.431,3.431,0,0,1-1.368.257A12.554,12.554,0,0,1,32.44,52.019Zm6.223-2.956h0a11.754,11.754,0,0,0-1.5-.718A10.246,10.246,0,1,1,52.829,61.48L50.62,58.489A4.01,4.01,0,0,0,47.4,56.8h0a4.01,4.01,0,0,0-3.224,1.688l-3.634,4.921a10.119,10.119,0,0,1-1.168-.747,6.533,6.533,0,0,0,2.875-4.89V54.487l0-.014C42.31,52.36,41.037,50.438,38.663,49.063ZM7.005,75l-5.323-.159V73.113l5.323.16Zm.584-3.3-5.925-.177L1.6,68.665l.714-.428,4.458-.114a.793.793,0,0,0,.772-.761L7.614,65.5l3.662-.087a.792.792,0,0,0,.773-.76l.065-1.613,3.033-.072a.792.792,0,0,0,.723-.514l.607-1.614,2.848-1.709a9.007,9.007,0,0,0,1.788,1.352c.058.034.121.062.18.095L6.221,69.624a.793.793,0,1,0,.816,1.359l16-9.6c.369.137.751.258,1.142.368Zm17.919-7.436L8.59,74.419V72.952L25.509,62.8v1.467Zm-3.6-5.153h0c-1.784-1.035-2.775-2.4-2.8-3.847v-.062c0-1.571,1.167-3.169,3.2-4.389a17.048,17.048,0,0,1,9.438-2.039,14.5,14.5,0,0,0-.762,2.479,4.227,4.227,0,0,0-.781.347A2.221,2.221,0,0,0,29,53.466,2.065,2.065,0,0,0,30.125,55.2a3.564,3.564,0,0,0,1.151.416,5.055,5.055,0,0,0,1.025.1,4.784,4.784,0,0,0,2.412-.619l.08-.052a2.164,2.164,0,0,0,1.132-1.739,1.822,1.822,0,0,0-.478-1.271,10.041,10.041,0,0,1,.856-2.326,10.41,10.41,0,0,1,1.564.72C39.7,51.5,40.693,52.9,40.662,54.45V54.5c-.066,1.534-1.2,3.037-3.184,4.231a13.052,13.052,0,0,1-1.682.841,16.577,16.577,0,0,1-2.724.842l-.043.008C29.022,61.276,24.761,60.777,21.908,59.116Zm8.782-5.884c-.01.132-.011.268-.018.4a.3.3,0,0,1-.091-.179A.385.385,0,0,1,30.691,53.232Zm4.255,9.97a18.326,18.326,0,0,1-7.852.814V62.3a19.686,19.686,0,0,0,2.046.11,20.248,20.248,0,0,0,4.177-.435l.052-.009a18.2,18.2,0,0,0,3.028-.933,14.6,14.6,0,0,0,1.891-.945,10.168,10.168,0,0,0,2.32-1.863,5.936,5.936,0,0,1-3.034,3.756c-.026.019-.049.032-.1.063A13.311,13.311,0,0,1,34.946,63.2Zm1.683,1.035h0c.454-.2.9-.419,1.333-.662A11.776,11.776,0,0,0,39.589,64.7l-.807,1.093A12.771,12.771,0,0,1,36.629,64.237ZM54.951,88.926H39.841a1.292,1.292,0,0,1-1.146-1.4V70.209a4.9,4.9,0,0,1,.943-2.912l5.809-7.864a2.342,2.342,0,0,1,3.9,0l2.3,3.109a10.057,10.057,0,0,1-2.86,1.54,3.024,3.024,0,0,0-3.511.536,2.616,2.616,0,0,0-.3.354,2.976,2.976,0,0,0,.3,3.89,1.581,1.581,0,0,0,.127.118,2.968,2.968,0,0,0,1.989.762,3.023,3.023,0,0,0,2.144-.894,3.336,3.336,0,0,0,.28-.336,14.577,14.577,0,0,0,4.516-2.327l.841,1.137a4.872,4.872,0,0,1,.927,2.889h0v17.32A1.292,1.292,0,0,1,54.951,88.926Z" transform="translate(0 -39.594)"/><line class="b" x2="14" transform="translate(62.25 3.283) rotate(-20)"/><line class="b" x2="14" transform="translate(64.828 12.889)"/><line class="b" x2="14" transform="matrix(0.643, -0.766, 0.766, 0.643, 53.329, -1.748)"/></g></g></svg>